<?xml version="1.0" standalone="no"?>
<!DOCTYPE svg PUBLIC "-//W3C//DTD SVG 20010904//EN"
 "http://www.w3.org/TR/2001/REC-SVG-20010904/DTD/svg10.dtd">
<svg version="1.0" xmlns="http://www.w3.org/2000/svg"
 width="500.000000pt" height="500.000000pt" viewBox="0 0 500.000000 500.000000"
 preserveAspectRatio="xMidYMid meet">

<g transform="translate(0.000000,500.000000) scale(0.100000,-0.100000)"
fill="#000000" stroke="none">
<path d="M1810 3005 c0 -33 2 -35 35 -35 33 0 35 2 35 35 0 33 -2 35 -35 35
-33 0 -35 -2 -35 -35z"/>
<path d="M1960 3005 c0 -33 2 -35 35 -35 33 0 35 2 35 35 0 33 -2 35 -35 35
-33 0 -35 -2 -35 -35z"/>
<path d="M1810 2855 c0 -33 2 -35 35 -35 33 0 35 2 35 35 0 33 -2 35 -35 35
-33 0 -35 -2 -35 -35z"/>
<path d="M1960 2855 c0 -33 2 -35 35 -35 33 0 35 2 35 35 0 33 -2 35 -35 35
-33 0 -35 -2 -35 -35z"/>
<path d="M1370 2521 c0 -74 4 -121 10 -121 6 0 10 18 10 40 l0 40 44 0 c39 0
46 -4 71 -40 15 -22 32 -40 37 -40 10 0 5 9 -24 52 -18 26 -18 27 7 52 30 30
33 74 6 107 -16 19 -30 24 -90 27 l-71 4 0 -121z m142 82 c22 -20 23 -61 1
-85 -12 -13 -30 -18 -70 -18 l-53 0 0 60 0 60 52 0 c34 0 58 -6 70 -17z"/>
<path d="M1620 2520 l0 -120 80 0 c47 0 80 4 80 10 0 6 -30 10 -70 10 l-70 0
0 50 0 49 63 4 62 3 -62 2 -63 2 0 45 0 45 70 0 c40 0 70 4 70 10 0 6 -33 10
-80 10 l-80 0 0 -120z"/>
<path d="M1901 2598 c-10 -24 -35 -78 -54 -120 -20 -43 -32 -78 -26 -78 5 0
17 16 26 35 17 35 17 35 85 35 l69 0 15 -35 c8 -19 19 -35 24 -35 6 0 10 2 10
4 0 17 -111 236 -120 236 -6 0 -19 -19 -29 -42z m63 -47 c14 -32 26 -61 26
-65 0 -3 -27 -6 -61 -6 -33 0 -59 4 -57 8 2 4 14 33 27 65 14 31 28 57 31 57
4 0 19 -26 34 -59z"/>
<path d="M2100 2520 l0 -120 80 0 c47 0 80 4 80 10 0 6 -30 10 -70 10 l-70 0
0 110 c0 67 -4 110 -10 110 -6 0 -10 -47 -10 -120z"/>
<path d="M2400 2520 l0 -120 80 0 c100 0 106 18 8 22 l-73 3 0 45 0 45 65 6
65 5 -65 5 -65 4 -3 43 -3 42 70 0 c38 0 73 5 76 10 4 6 -23 10 -74 10 l-81 0
0 -120z"/>
<path d="M2632 2624 c-30 -21 -30 -69 1 -88 12 -8 41 -19 64 -26 44 -11 67
-37 57 -64 -11 -28 -84 -34 -139 -11 -18 8 -18 7 -7 -8 18 -21 89 -31 125 -18
33 13 52 54 37 81 -6 11 -33 26 -64 35 -30 9 -60 22 -66 30 -32 39 26 85 82
66 34 -12 52 -6 28 9 -24 15 -93 12 -118 -6z"/>
<path d="M2800 2630 c0 -5 20 -10 45 -10 l45 0 0 -110 c0 -67 4 -110 10 -110
6 0 10 43 10 110 l0 110 40 0 c22 0 40 5 40 10 0 6 -38 10 -95 10 -57 0 -95
-4 -95 -10z"/>
<path d="M3064 2543 c-61 -130 -66 -143 -53 -143 5 0 17 16 25 35 l14 35 68 0
c68 0 68 0 85 -35 31 -65 36 -35 6 33 -17 37 -42 91 -54 120 -13 28 -29 52
-35 52 -6 0 -31 -44 -56 -97z m86 15 c12 -29 24 -59 27 -65 4 -10 -11 -13 -56
-13 -34 0 -61 3 -61 6 0 14 53 124 60 124 4 0 17 -24 30 -52z"/>
<path d="M3250 2630 c0 -5 18 -10 40 -10 l40 0 0 -110 c0 -67 4 -110 10 -110
6 0 10 43 10 110 l0 110 45 0 c25 0 45 5 45 10 0 6 -38 10 -95 10 -57 0 -95
-4 -95 -10z"/>
<path d="M3490 2520 l0 -120 80 0 c100 0 106 18 8 22 l-73 3 0 45 0 45 65 6
65 5 -65 5 -65 4 -3 43 -3 42 70 0 c38 0 73 5 76 10 4 6 -23 10 -74 10 l-81 0
0 -120z"/>
<path d="M1918 2243 c325 -2 859 -2 1185 0 325 1 59 2 -593 2 -652 0 -918 -1
-592 -2z"/>
<path d="M1448 2093 c7 -3 16 -2 19 1 4 3 -2 6 -13 5 -11 0 -14 -3 -6 -6z"/>
<path d="M1768 2093 c7 -3 16 -2 19 1 4 3 -2 6 -13 5 -11 0 -14 -3 -6 -6z"/>
<path d="M1958 2093 c6 -2 18 -2 25 0 6 3 1 5 -13 5 -14 0 -19 -2 -12 -5z"/>
<path d="M3058 2093 c7 -3 16 -2 19 1 4 3 -2 6 -13 5 -11 0 -14 -3 -6 -6z"/>
<path d="M3248 2093 c6 -2 18 -2 25 0 6 3 1 5 -13 5 -14 0 -19 -2 -12 -5z"/>
<path d="M3538 2093 c7 -3 16 -2 19 1 4 3 -2 6 -13 5 -11 0 -14 -3 -6 -6z"/>
<path d="M1544 2062 c0 -10 6 -19 13 -19 8 0 9 6 2 19 -5 10 -11 18 -12 18 -2
0 -3 -8 -3 -18z"/>
<path d="M1448 2023 c7 -3 16 -2 19 1 4 3 -2 6 -13 5 -11 0 -14 -3 -6 -6z"/>
<path d="M1768 2023 c7 -3 16 -2 19 1 4 3 -2 6 -13 5 -11 0 -14 -3 -6 -6z"/>
<path d="M2478 2023 c7 -3 16 -2 19 1 4 3 -2 6 -13 5 -11 0 -14 -3 -6 -6z"/>
<path d="M3058 2023 c7 -3 16 -2 19 1 4 3 -2 6 -13 5 -11 0 -14 -3 -6 -6z"/>
<path d="M3538 2023 c7 -3 16 -2 19 1 4 3 -2 6 -13 5 -11 0 -14 -3 -6 -6z"/>
</g>
</svg>
