<?xml version="1.0" standalone="no"?>
<!DOCTYPE svg PUBLIC "-//W3C//DTD SVG 20010904//EN"
 "http://www.w3.org/TR/2001/REC-SVG-20010904/DTD/svg10.dtd">
<svg version="1.0" xmlns="http://www.w3.org/2000/svg"
 width="236.000000pt" height="284.000000pt" viewBox="0 0 236.000000 284.000000"
 preserveAspectRatio="xMidYMid meet">

<g transform="translate(0.000000,284.000000) scale(0.100000,-0.100000)"
fill="#000000" stroke="none">
<path d="M1048 2720 c-224 -38 -437 -175 -569 -366 -123 -180 -183 -436 -144
-625 58 -287 312 -739 735 -1307 58 -78 107 -141 110 -141 3 0 66 82 140 182
402 541 648 984 705 1266 52 256 -62 577 -275 774 -188 174 -459 258 -702 217z
m301 -116 c116 -28 246 -99 334 -183 154 -148 231 -308 252 -527 17 -173 -76
-419 -298 -789 -123 -206 -438 -664 -457 -665 -9 0 -245 331 -342 480 -237
363 -379 657 -409 849 -17 111 3 246 53 371 91 222 290 402 510 460 94 24 265
26 357 4z"/>
<path d="M1073 2326 c-216 -53 -373 -257 -373 -486 0 -136 51 -260 145 -355
153 -154 363 -187 558 -89 111 56 218 201 246 332 75 357 -236 680 -576 598z
m275 -135 c160 -86 243 -274 198 -449 -21 -82 -54 -138 -117 -197 -58 -55
-111 -80 -194 -93 -237 -38 -451 166 -432 413 13 159 99 280 243 341 51 21 71
24 149 21 80 -3 97 -7 153 -36z"/>
<path d="M695 606 c-216 -56 -335 -148 -317 -245 13 -64 144 -147 303 -190
159 -44 263 -55 499 -55 244 0 348 13 515 60 317 90 379 251 142 367 -58 29
-238 87 -269 87 -4 0 -21 -20 -38 -45 -17 -25 -29 -45 -27 -45 29 0 189 -37
249 -57 248 -84 127 -201 -259 -248 -137 -17 -446 -20 -594 -5 -119 12 -263
44 -329 72 -143 61 -114 140 70 194 37 10 201 44 217 44 2 0 -10 20 -27 45
-17 25 -34 45 -38 45 -4 -1 -47 -11 -97 -24z"/>
</g>
</svg>
