<?xml version="1.0" encoding="UTF-8"?>
<svg xmlns="http://www.w3.org/2000/svg" xmlns:xlink="http://www.w3.org/1999/xlink" viewBox="0 0 256 256" width="256px" height="256px">
<g id="surface178669535">
<path style=" stroke:none;fill-rule:nonzero;fill:rgb(100%,100%,100%);fill-opacity:1;" d="M 104.699219 28.800781 C 85.25 28.800781 65.800781 36.199219 51 51 C 21.398438 80.601562 21.398438 128.796875 51 158.398438 C 65.800781 173.199219 85.199219 180.601562 104.800781 180.601562 C 124.402344 180.601562 143.800781 173.199219 158.601562 158.398438 C 188 128.796875 188 80.601562 158.398438 51 C 143.597656 36.199219 124.148438 28.800781 104.699219 28.800781 Z M 104.601562 40.601562 C 121 40.601562 137.402344 46.796875 149.800781 59.398438 C 174.800781 84.398438 174.800781 125 150 150 C 125 175 84.398438 175 59.398438 150 C 34.398438 125 34.398438 84.398438 59.398438 59.398438 C 71.796875 47 88.203125 40.601562 104.601562 40.601562 Z M 104.601562 52.601562 C 90.800781 52.601562 77.800781 58 68 68 C 58.601562 77.398438 53.402344 89.601562 52.800781 102.800781 C 52.601562 106.199219 55.203125 108.800781 58.601562 109 L 58.800781 109 C 62 109 64.601562 106.398438 64.800781 103.199219 C 65.199219 93 69.398438 83.597656 76.398438 76.398438 C 84 68.796875 94 64.601562 104.601562 64.601562 C 108 64.601562 110.601562 62 110.601562 58.601562 C 110.601562 55.203125 108 52.601562 104.601562 52.601562 Z M 70 128 C 66.6875 128 64 130.6875 64 134 C 64 137.3125 66.6875 140 70 140 C 73.3125 140 76 137.3125 76 134 C 76 130.6875 73.3125 128 70 128 Z M 166.726562 161 C 165.203125 161 163.703125 161.601562 162.601562 162.800781 C 160.203125 165.199219 160.203125 169 162.601562 171.199219 L 167.601562 176.199219 C 166.402344 178.597656 165.800781 181.199219 165.800781 184 C 165.800781 188.800781 167.601562 193.402344 171 196.800781 L 196.601562 222 C 200.203125 225.601562 204.796875 227.398438 209.398438 227.398438 C 214 227.398438 218.597656 225.597656 222.199219 222.199219 C 229.199219 215.199219 229.199219 203.800781 222.199219 196.800781 L 196.601562 171.199219 C 193.203125 167.800781 188.601562 166 183.800781 166 C 181 166 178.398438 166.601562 176 167.800781 L 171 162.800781 C 169.800781 161.601562 168.25 161 166.726562 161 Z M 183.800781 177.800781 C 185.402344 177.800781 187 178.402344 188 179.601562 L 213.398438 205 C 215.796875 207.398438 215.796875 211.199219 213.398438 213.398438 C 211 215.796875 207.199219 215.796875 205 213.398438 L 179.601562 188.199219 C 178.402344 187 177.800781 185.402344 177.800781 183.800781 C 177.800781 182.199219 178.402344 180.601562 179.601562 179.601562 C 180.800781 178.402344 182.199219 177.800781 183.800781 177.800781 Z M 183.800781 177.800781 "/>
</g>
</svg>
